<svg width="11" height="11" viewBox="0 0 11 11" fill="none" xmlns="http://www.w3.org/2000/svg">
<path d="M5.49987 0C2.46226 0.000150391 0.000257812 2.46224 0 5.49987C0.000257812 8.53748 2.46226 10.9996 5.49987 10.9997C8.53774 10.9996 10.9998 8.53748 11 5.49987C10.9998 2.46224 8.53774 0.000150391 5.49987 0ZM2.09703 2.097C2.59847 1.59582 3.20908 1.20594 3.89 0.96424C3.56381 1.35902 3.29188 1.86456 3.07882 2.44915H1.7783C1.87885 2.3268 1.98507 2.20898 2.09703 2.097ZM1.40963 2.96478H2.91324C2.71971 3.65075 2.60365 4.42215 2.58317 5.24206H0.694525C0.738504 4.40838 0.994727 3.63262 1.40963 2.96478ZM1.40963 8.03496C0.994727 7.36712 0.738504 6.59136 0.694525 5.75768H2.58496C2.6056 6.57675 2.71837 7.3495 2.91165 8.03498L1.40963 8.03496ZM2.09703 8.90269C1.98507 8.79074 1.87883 8.67292 1.77828 8.55057H3.07966C3.17161 8.80352 3.27342 9.0435 3.38714 9.26406C3.53654 9.55277 3.70421 9.81123 3.88876 10.0351C3.2083 9.79344 2.59813 9.40356 2.09703 8.90269ZM5.24214 10.3052C5.16166 10.301 5.08168 10.295 5.00229 10.2867C4.87575 10.23 4.75045 10.1525 4.62632 10.0512C4.2475 9.74276 3.89636 9.22043 3.62948 8.55057H5.24212V10.3052H5.24214ZM5.24214 8.03496H3.44957C3.24597 7.36527 3.12052 6.58883 3.09878 5.75766H5.24212V8.03496H5.24214ZM5.24214 5.24206H3.10041C3.12207 4.4104 3.24812 3.63462 3.45187 2.96478H5.24217L5.24214 5.24206ZM5.24214 2.44915H3.63187C3.69866 2.28179 3.76866 2.12019 3.84529 1.97231C4.07389 1.52919 4.34309 1.17975 4.62634 0.948449C4.75045 0.847258 4.87575 0.769699 5.00231 0.712981C5.0817 0.704773 5.16166 0.698715 5.24217 0.694525L5.24214 2.44915ZM9.59045 2.96478C10.0054 3.63262 10.2615 4.4084 10.3055 5.24206H8.41504C8.3944 4.42299 8.28162 3.65024 8.08827 2.96478H9.59045ZM8.90298 2.097C9.01493 2.20896 9.12117 2.3268 9.22172 2.44915H7.92026C7.82828 2.19622 7.7264 1.9562 7.61277 1.73566C7.46339 1.44697 7.29571 1.18849 7.11118 0.964584C7.7917 1.20643 8.40179 1.59618 8.90298 2.097ZM5.75777 0.694525C5.83825 0.698715 5.91824 0.704924 5.99753 0.712981C6.12408 0.769893 6.2494 0.847258 6.3736 0.948449C6.7525 1.25694 7.10355 1.77927 7.37041 2.44913H5.75777V0.694525ZM5.75777 2.96478H7.55034C7.75393 3.63447 7.87948 4.41089 7.90114 5.24206H5.75777V2.96478ZM5.75777 5.75768H7.89944C7.8778 6.58934 7.75176 7.3651 7.54798 8.03498H5.75777V5.75768ZM6.37358 10.0512C6.24938 10.1525 6.12406 10.2298 5.99751 10.2867C5.91822 10.2948 5.83823 10.301 5.75775 10.3052V8.55059H7.36802C7.30123 8.71793 7.23123 8.87956 7.15462 9.02743C6.92605 9.47053 6.65683 9.81997 6.37358 10.0512ZM8.90298 8.90269C8.40162 9.40388 7.79086 9.79378 7.10991 10.0355C7.43619 9.64068 7.70793 9.13516 7.9211 8.55057H9.22172C9.12115 8.67294 9.01493 8.79076 8.90298 8.90269ZM9.59045 8.03496H8.08659C8.28012 7.34899 8.39627 6.57742 8.41674 5.75766H10.3055C10.2615 6.59136 10.0054 7.36712 9.59045 8.03496Z" fill="#E71919"/>
</svg>
