<svg width="25" height="24" viewBox="0 0 25 24" fill="none" xmlns="http://www.w3.org/2000/svg">
<path d="M6.10352e-05 0V6.22552V23.8846H25.0001V23.1326V6.22547V0H6.10352e-05ZM15.5827 1.50394H18.8352V6.22552C18.8349 6.69105 18.6543 7.10636 18.3588 7.41259C18.0623 7.71771 17.6602 7.90424 17.2089 7.90464C16.7578 7.90424 16.3556 7.71771 16.0591 7.41259C15.7636 7.10636 15.583 6.69145 15.5827 6.22552V1.50394ZM10.8738 1.50394H14.1263V6.22552C14.126 6.69145 13.9454 7.10636 13.6499 7.41259C13.3534 7.71771 12.9516 7.90424 12.5004 7.90464C12.0489 7.90424 11.6467 7.71771 11.3502 7.41259C11.0547 7.10636 10.8741 6.69145 10.8737 6.22552V1.50394H10.8738ZM6.1653 1.50394H9.41749V6.22552C9.41715 6.69145 9.23654 7.10636 8.94142 7.41259C8.64454 7.71771 8.24279 7.90424 7.79122 7.90464C7.34005 7.90424 6.93829 7.71771 6.64176 7.41259C6.3463 7.10636 6.16569 6.69145 6.16534 6.22552L6.1653 1.50394ZM1.45641 1.50394H4.70895V6.22552C4.70856 6.69145 4.52799 7.10636 4.23248 7.41259C3.936 7.71771 3.53385 7.90424 3.08229 7.90464C2.63112 7.90424 2.22936 7.71771 1.93282 7.41259C1.63737 7.10636 1.45675 6.69145 1.45636 6.22552L1.45641 1.50394ZM23.5437 22.3807H16.5508V17.5155H8.44967V22.3807H1.45641V8.92575C1.92858 9.22977 2.48463 9.40823 3.08234 9.40863C4.0274 9.40823 4.87184 8.96836 5.43712 8.27733C6.00245 8.96836 6.8465 9.40823 7.79117 9.40863C8.73624 9.40863 9.58033 8.96877 10.1456 8.27769C10.7113 8.96836 11.5554 9.40823 12.5004 9.40863C13.4451 9.40823 14.2892 8.96836 14.8545 8.27733C15.4198 8.96836 16.2639 9.40823 17.2089 9.40863C18.1537 9.40823 18.9977 8.96836 19.5634 8.27769C20.1287 8.96872 20.9728 9.40863 21.9178 9.40863C22.5155 9.40823 23.0716 9.22982 23.5437 8.92575V22.3807ZM23.5437 6.22552C23.5434 6.69145 23.3628 7.10636 23.0673 7.41259C22.7708 7.71771 22.369 7.90424 21.9178 7.90464C21.4663 7.90424 21.0645 7.71771 20.7676 7.41259C20.4725 7.10636 20.292 6.69145 20.2916 6.22552V1.50394H23.5438L23.5437 6.22552Z" fill="white"/>
<path d="M7.64591 11.3867H5.21857V14.3242H7.64591V11.3867Z" fill="white"/>
<path d="M19.7817 11.3867H17.3544V14.3242H19.7817V11.3867Z" fill="white"/>
<path d="M13.7139 11.3867H11.2863V14.3242H13.7139V11.3867Z" fill="white"/>
</svg>
