<svg width="10" height="12" viewBox="0 0 10 12" fill="none" xmlns="http://www.w3.org/2000/svg">
<path d="M9.87687 6.3392C9.20401 3.65648 6.59826 2.64737 6.37032 2.40192L7.01109 0.0692995C7.01109 0.0692995 6.21095 -0.189268 5.08877 0.292506C3.66173 0.905221 2.86668 0.124033 2.86668 0.124033L3.57091 2.4384C3.35027 2.68968 0.578569 3.81622 0.0770956 6.4672C-0.355803 8.74765 0.998678 12.0022 5.04683 11.9497C9.09534 11.8964 10.4429 8.59157 9.87687 6.3392ZM6.90206 6.56787V7.2039H5.5917L5.37325 7.54416V7.94971H6.90206V8.58611H5.37325V9.69404H4.62707V8.58611H3.09826V7.94971H4.62707V7.54416L4.40825 7.2039H3.09826V6.56787H3.99907L2.92722 4.90011H3.69125L5.00015 6.93658L6.30942 4.90011H7.07273L6.00125 6.56787H6.90206Z" fill="#E71919"/>
</svg>
