<svg width="15" height="12" viewBox="0 0 15 12" fill="none" xmlns="http://www.w3.org/2000/svg">
<path d="M7.49998 1.91162C8.02817 1.91162 8.45599 1.48383 8.45599 0.955811C8.45599 0.427822 8.0282 0 7.49998 0C6.97219 0 6.54437 0.427852 6.54437 0.955811C6.54437 1.4838 6.97219 1.91162 7.49998 1.91162Z" fill="#504636"/>
<path d="M13.371 4.61037H10.783L10.7821 4.60949L8.79466 1.38232C8.70419 1.60721 8.55642 1.80367 8.36897 1.95145L10.0057 4.60949L10.0062 4.61037H4.99553L4.99597 4.60949L6.63056 1.95145C6.44314 1.80367 6.29537 1.60721 6.2049 1.38232L4.21746 4.60949L4.21661 4.61058H1.62943C0.729404 4.61078 0.000410156 5.33978 0 6.23978V10.0402C0.000410156 10.9402 0.729404 11.6692 1.62943 11.6694L13.371 11.6692C14.271 11.6692 15 10.9402 15 10.0402V6.23978C15 5.33978 14.271 4.61078 13.371 4.61037ZM14.1176 10.0402C14.1176 10.2479 14.0349 10.4318 13.8992 10.5684C13.7626 10.7041 13.5787 10.7868 13.371 10.7868L1.62943 10.787C1.42178 10.7868 1.23779 10.7041 1.10121 10.5684C0.965508 10.4318 0.882773 10.2478 0.882363 10.0402V6.23978C0.882773 6.03212 0.965508 5.84813 1.10121 5.71155C1.23779 5.57585 1.42178 5.49312 1.62943 5.49291L13.371 5.4927C13.5787 5.49311 13.7626 5.57585 13.8992 5.71155C14.0349 5.84813 14.1176 6.03212 14.1176 6.23978V10.0402Z" fill="#504636"/>
<path d="M4.33679 7.23389C3.93138 7.23389 3.62678 7.42795 3.5057 7.80195C3.45701 7.94735 3.44324 8.07898 3.44324 8.4495C3.44324 8.82025 3.45704 8.95189 3.5057 9.09726C3.62678 9.47144 3.93138 9.66532 4.33679 9.66532C4.74566 9.66532 5.05026 9.47144 5.17134 9.09726C5.22003 8.95189 5.2338 8.82025 5.2338 8.4495C5.2338 8.07898 5.22003 7.94735 5.17134 7.80195C5.05026 7.42798 4.74566 7.23389 4.33679 7.23389ZM4.77668 8.98977C4.71077 9.18043 4.57249 9.29826 4.33679 9.29826C4.10459 9.29826 3.96627 9.18043 3.90036 8.98977C3.87279 8.90316 3.85899 8.78211 3.85899 8.4495C3.85899 8.11364 3.87276 7.99584 3.90036 7.90924C3.96627 7.71881 4.10459 7.60118 4.33679 7.60118C4.57249 7.60118 4.71077 7.71881 4.77668 7.90924C4.80425 7.99584 4.81805 8.11367 4.81805 8.4495C4.81802 8.78211 4.80425 8.90316 4.77668 8.98977Z" fill="#504636"/>
<path d="M6.60257 7.27222H5.71936C5.69867 7.27222 5.68488 7.28599 5.68488 7.3067V9.59271C5.68488 9.61339 5.69865 9.62739 5.71936 9.62739H6.05885C6.07953 9.62739 6.09333 9.61339 6.09333 9.59271V8.75818C6.09333 8.74418 6.10022 8.7373 6.11446 8.7373H6.6026C7.05972 8.7373 7.37856 8.44283 7.37856 8.00294C7.37853 7.56648 7.05969 7.27222 6.60257 7.27222ZM6.57846 8.36654H6.11446C6.10022 8.36654 6.09333 8.35963 6.09333 8.34586V7.65996C6.09333 7.64616 6.10022 7.63928 6.11446 7.63928H6.57846C6.8206 7.63928 6.96969 7.78834 6.96969 8.00291C6.96966 8.22135 6.8206 8.36654 6.57846 8.36654Z" fill="#504636"/>
<path d="M9.26643 7.27222H7.79124C7.77012 7.27222 7.75635 7.28599 7.75635 7.3067V9.59271C7.75635 9.61339 7.77012 9.62739 7.79124 9.62739H9.26643C9.28711 9.62739 9.30132 9.61339 9.30132 9.59271V9.29499C9.30132 9.2741 9.28708 9.2601 9.26643 9.2601H8.18587C8.1721 9.2601 8.16519 9.25321 8.16519 9.23941V8.64378C8.16519 8.62978 8.17207 8.62289 8.18587 8.62289H9.09668C9.11777 8.62289 9.13157 8.60912 9.13157 8.58841V8.29049C9.13157 8.2696 9.1178 8.2558 9.09668 8.2558H8.1859C8.17213 8.2558 8.16521 8.24892 8.16521 8.23512V7.65993C8.16521 7.64613 8.1721 7.63925 8.1859 7.63925H9.26646C9.28714 7.63925 9.30135 7.62548 9.30135 7.60477V7.30664C9.30132 7.28599 9.28711 7.27222 9.26643 7.27222Z" fill="#504636"/>
<path d="M11.4525 7.27222H11.1513C11.1302 7.27222 11.1164 7.28599 11.1164 7.3067V8.93139H11.1027L10.1432 7.3067C10.1294 7.28256 10.1122 7.27222 10.0846 7.27222H9.76578C9.74509 7.27222 9.73132 7.28599 9.73132 7.3067V9.59271C9.73132 9.61339 9.74509 9.62739 9.76578 9.62739H10.0669C10.088 9.62739 10.1018 9.61339 10.1018 9.59271V7.97189H10.1156L11.0785 9.59268C11.0923 9.61702 11.1095 9.62736 11.1376 9.62736H11.4525C11.4732 9.62736 11.487 9.61336 11.487 9.59268V7.30667C11.4869 7.28599 11.4732 7.27222 11.4525 7.27222Z" fill="#504636"/>
</svg>
