<svg width="10" height="10" viewBox="0 0 10 10" fill="none" xmlns="http://www.w3.org/2000/svg">
<path d="M3.53793 4.40129L4.80406 5.37806L4.82168 5.38816L4.82957 5.39258C4.93906 5.45355 5.084 5.42123 5.18064 5.31486L5.18908 5.30677L6.74088 3.4708C6.82924 3.37177 6.8307 3.22922 6.74474 3.15279C6.65859 3.07619 6.51732 3.09457 6.42931 3.19357L4.97877 4.74316L3.85888 3.96332C3.75416 3.88617 3.59711 3.92199 3.50836 4.04304C3.4198 4.16375 3.43283 4.32431 3.53793 4.40129Z" fill="#E71919"/>
<path d="M1.96149 4.99969C1.96149 4.93262 1.96295 4.86559 1.97004 4.7998H1.17522C1.17036 4.86557 1.16907 4.93262 1.16907 4.99969C1.16907 5.06803 1.17036 5.13398 1.17522 5.19992H1.97004C1.96295 5.13398 1.96149 5.06711 1.96149 4.99969Z" fill="#E71919"/>
<path d="M3.36725 2.43755C3.44239 2.38997 3.51909 2.34515 3.59698 2.30528L3.62729 2.29058L3.2312 1.60278C3.1321 1.65274 3.03556 1.70821 2.94186 1.76903L3.33813 2.4572L3.36725 2.43755Z" fill="#E71919"/>
<path d="M1.60263 3.2313L2.29072 3.62737L2.45726 3.33841L1.7689 2.94214C1.70808 3.03583 1.65269 3.1321 1.60263 3.2313Z" fill="#E71919"/>
<path d="M7.69469 6.40254C7.65337 6.48062 7.60991 6.55703 7.56102 6.63107L7.5412 6.6601L8.22948 7.05635C8.29038 6.96266 8.34585 6.86768 8.3971 6.76865L7.71057 6.37109L7.69469 6.40254Z" fill="#E71919"/>
<path d="M2.30523 6.40123L2.28933 6.37109L1.60263 6.76719C1.6515 6.86621 1.70806 6.96266 1.76888 7.05635L2.45724 6.6601L2.4372 6.63107C2.38974 6.55701 2.34492 6.48061 2.30523 6.40123Z" fill="#E71919"/>
<path d="M3.36725 7.56108L3.33813 7.54126L2.94186 8.2296C3.03557 8.29042 3.1321 8.34718 3.2312 8.39733L3.62729 7.70917L3.59698 7.69448C3.51907 7.65478 3.44237 7.60995 3.36725 7.56108Z" fill="#E71919"/>
<path d="M6.37103 2.28946L6.66029 2.4572L7.05646 1.76903C6.96285 1.70821 6.86752 1.65274 6.76877 1.60278L6.37103 2.28946Z" fill="#E71919"/>
<path d="M4.7999 8.02975V8.82357C4.86585 8.82943 4.93271 8.83072 4.99968 8.83072C5.06691 8.83072 5.13388 8.82943 5.19964 8.82357V8.02975V8.02148H4.7999V8.02975Z" fill="#E71919"/>
<path d="M5.19964 1.97017V1.17636C5.13388 1.17046 5.06691 1.16919 4.99968 1.16919C4.93271 1.16919 4.86585 1.17046 4.7999 1.17636V1.97017V1.97843H5.19964V1.97017Z" fill="#E71919"/>
<path d="M6.37103 7.71046L6.76877 8.39733C6.86752 8.34571 6.96285 8.29042 7.05646 8.2296L6.66029 7.54126L6.37103 7.71046Z" fill="#E71919"/>
<path d="M8.3971 3.2313C8.34686 3.1321 8.29036 3.03585 8.22948 2.94214L7.5412 3.33841L7.70919 3.62737L8.3971 3.2313Z" fill="#E71919"/>
<path d="M8.82441 4.80005H8.02968H8.02142V5.20017H8.02968H8.82441C8.82937 5.13423 8.83049 5.06735 8.83049 4.99993C8.83047 4.93286 8.82937 4.86581 8.82441 4.80005Z" fill="#E71919"/>
<path d="M4.9999 0C2.2383 0.000175781 0.000175781 2.23848 0 5C0.000175781 7.76152 2.2383 9.9998 4.9999 10C7.7615 9.9998 9.99963 7.76152 9.9998 5C9.99963 2.23848 7.7615 0.000175781 4.9999 0ZM4.9999 9.3548C3.79625 9.35461 2.70951 8.86797 1.92059 8.07932C1.13201 7.29012 0.645273 6.20346 0.645176 5C0.645273 3.79652 1.13201 2.70971 1.92057 1.92086C2.70951 1.13199 3.79625 0.645352 4.9999 0.645176C6.20338 0.645371 7.2901 1.13201 8.07922 1.92086C8.86779 2.70971 9.35453 3.79633 9.35461 5C9.35451 6.20346 8.86777 7.29012 8.07922 8.07932C7.2901 8.86799 6.20338 9.35463 4.9999 9.3548Z" fill="#E71919"/>
</svg>
