<svg width="10" height="10" viewBox="0 0 10 10" fill="none" xmlns="http://www.w3.org/2000/svg">
<path d="M2.77578 2.02197C3.08816 2.02197 3.34148 1.76865 3.34148 1.45609V0.565703C3.34148 0.25332 3.08816 0 2.77578 0C2.46322 0 2.2099 0.25332 2.2099 0.565703V1.45611C2.2099 1.76865 2.46322 2.02197 2.77578 2.02197Z" fill="#E71919"/>
<path d="M6.94809 2.02197C7.26049 2.02197 7.5138 1.76865 7.5138 1.45609V0.565703C7.51381 0.25332 7.26049 0 6.94809 0C6.63555 0 6.38223 0.25332 6.38223 0.565703V1.45611C6.38223 1.76865 6.63555 2.02197 6.94809 2.02197Z" fill="#E71919"/>
<path d="M8.36115 0.806396H8.01105V1.4561C8.01105 2.04237 7.5342 2.51923 6.94811 2.51923C6.36184 2.51923 5.885 2.04237 5.885 1.4561V0.806396H3.83871V1.4561C3.83871 2.04237 3.36187 2.51923 2.77578 2.51923C2.18953 2.51923 1.71266 2.04237 1.71266 1.4561V0.806396H1.36256C0.610059 0.806396 0 1.41644 0 2.16895V8.63745C0 9.38995 0.610078 10 1.36256 10H8.36115C9.11365 10 9.72371 9.38995 9.72371 8.63745V2.16895C9.72371 1.41646 9.11363 0.806396 8.36115 0.806396ZM8.65137 8.39821C8.65137 8.74638 8.36811 9.02964 8.01994 9.02964H1.70377C1.35561 9.02964 1.07234 8.74638 1.07234 8.39821V3.33743H8.65139L8.65137 8.39821Z" fill="#E71919"/>
<path d="M4.58686 7.26123H3.58704V8.26107H4.58686V7.26123Z" fill="#E71919"/>
<path d="M4.58686 5.71143H3.58704V6.71123H4.58686V5.71143Z" fill="#E71919"/>
<path d="M3.03716 7.26123H2.03735V8.26107H3.03716V7.26123Z" fill="#E71919"/>
<path d="M3.03716 5.71143H2.03735V6.71123H3.03716V5.71143Z" fill="#E71919"/>
<path d="M7.68633 4.16138H6.68652V5.1612H7.68633V4.16138Z" fill="#E71919"/>
<path d="M6.13682 4.16138H5.13684V5.1612H6.13682V4.16138Z" fill="#E71919"/>
<path d="M6.13682 5.71143H5.13684V6.71123H6.13682V5.71143Z" fill="#E71919"/>
<path d="M7.68633 7.26123H6.68652V8.26107H7.68633V7.26123Z" fill="#E71919"/>
<path d="M7.68633 5.71143H6.68652V6.71123H7.68633V5.71143Z" fill="#E71919"/>
<path d="M6.13682 7.26123H5.13684V8.26107H6.13682V7.26123Z" fill="#E71919"/>
<path d="M4.58686 4.16138H3.58704V5.1612H4.58686V4.16138Z" fill="#E71919"/>
<path d="M3.03716 4.16138H2.03735V5.1612H3.03716V4.16138Z" fill="#E71919"/>
</svg>
